<?xml version="1.0" standalone="no"?>
<!DOCTYPE svg PUBLIC "-//W3C//DTD SVG 20010904//EN"
 "http://www.w3.org/TR/2001/REC-SVG-20010904/DTD/svg10.dtd">
<svg version="1.0" xmlns="http://www.w3.org/2000/svg"
 width="1280.000000pt" height="1280.000000pt" viewBox="0 0 1280.000000 1280.000000"
 preserveAspectRatio="xMidYMid meet">

<g transform="translate(0.000000,1280.000000) scale(0.100000,-0.100000)"
fill="#000000" stroke="none">
<path d="M6330 9215 c-91 -33 -622 -216 -815 -280 -88 -30 -293 -99 -455 -155
-162 -56 -333 -114 -380 -130 -190 -64 -634 -215 -940 -320 -179 -61 -383
-131 -455 -155 -149 -50 -372 -126 -835 -285 -179 -62 -349 -119 -378 -127
-28 -9 -52 -20 -52 -24 0 -5 413 -10 918 -10 504 -1 928 -3 942 -5 17 -2 6474
-6 6919 -4 8 0 12 2 10 5 -4 4 -363 130 -529 185 -67 22 -286 98 -640 220
-382 132 -581 201 -610 210 -14 4 -144 49 -290 100 -146 50 -290 100 -320 110
-30 10 -174 60 -320 110 -146 50 -335 115 -420 145 -85 29 -216 74 -290 100
-74 25 -160 55 -190 65 -106 35 -576 198 -665 230 -117 42 -128 43 -205 15z"/>
<path d="M2264 7661 c-2 -2 -4 -28 -4 -58 l0 -53 838 0 c460 0 2321 -3 4135
-7 l3297 -6 0 57 c0 36 -4 58 -12 61 -16 6 -8248 11 -8254 6z"/>
<path d="M2604 7456 c-3 -7 -3 -70 -2 -142 l3 -129 2850 3 c1568 1 3301 5
3853 8 l1002 6 0 125 c0 90 -3 125 -12 128 -7 2 -1740 6 -3851 8 -2946 4
-3840 2 -3843 -7z"/>
<path d="M9773 7054 c-15 -24 -15 -29 -2 -53 42 -75 202 -82 253 -10 21 30 20
42 -2 69 -13 16 -24 21 -39 16 -25 -8 -38 -35 -23 -50 15 -15 12 -43 -6 -50
-31 -12 -101 -6 -114 9 -11 13 -10 20 1 41 12 23 11 27 -6 40 -27 20 -42 17
-62 -12z"/>
<path d="M2634 6865 c-12 -34 -31 -135 -26 -139 12 -12 22 -5 43 34 31 54 71
72 161 68 l73 -3 3 -279 c2 -249 1 -281 -14 -298 -10 -10 -27 -18 -38 -18 -26
0 -50 -15 -43 -26 4 -7 264 -11 286 -5 13 4 -26 31 -45 31 -53 0 -54 8 -54
317 l0 285 91 -4 c98 -3 100 -5 160 -90 10 -13 20 -20 24 -16 8 7 -14 129 -25
142 -12 12 -592 13 -596 1z"/>
<path d="M3323 6868 c-8 -14 8 -28 31 -28 45 0 46 -11 44 -310 -3 -258 -5
-284 -20 -291 -10 -5 -26 -13 -35 -18 -10 -4 -18 -12 -18 -16 0 -12 485 -12
495 0 8 10 40 127 40 146 0 21 -21 6 -50 -36 -44 -64 -71 -75 -183 -75 -131 0
-128 -3 -125 150 l3 125 90 0 90 0 18 -37 c9 -21 22 -38 27 -38 6 0 10 41 10
100 0 112 -13 129 -42 60 l-17 -41 -88 3 -88 3 -3 133 -3 132 101 0 c119 0
151 -12 180 -70 19 -38 30 -47 42 -35 5 5 -20 136 -28 144 -7 8 -466 6 -471
-1z"/>
<path d="M4241 6853 c-15 -33 -194 -465 -223 -538 -25 -63 -41 -81 -79 -89
-17 -3 -29 -11 -27 -17 4 -13 196 -20 203 -8 6 9 -16 26 -40 31 -30 5 -28 34
8 123 l32 80 114 5 c131 6 120 13 166 -107 29 -75 28 -103 -3 -103 -16 0 -52
-28 -41 -31 2 -1 62 -2 132 -3 106 -2 127 0 125 12 -2 8 -18 20 -37 26 -33 11
-37 18 -118 216 -159 393 -175 430 -188 430 -6 0 -17 -12 -24 -27z m33 -205
c15 -40 34 -88 42 -106 8 -18 14 -37 14 -42 0 -6 -41 -10 -95 -10 -52 0 -95 2
-95 5 0 2 17 49 38 102 22 54 42 106 45 116 10 28 21 14 51 -65z"/>
<path d="M4663 6867 c-6 -10 -32 -117 -33 -134 0 -28 27 -11 52 32 34 55 57
65 154 65 l74 0 -2 -292 -3 -293 -30 -8 c-99 -30 -74 -42 85 -42 119 0 140 2
138 14 -2 9 -17 18 -34 22 -17 3 -36 9 -42 13 -9 5 -12 87 -12 297 l0 289 74
0 c91 0 122 -11 144 -51 30 -54 40 -65 50 -54 10 9 -9 129 -22 142 -8 9 -588
9 -593 0z"/>
<path d="M5352 6860 c2 -8 15 -16 30 -18 15 -2 31 -9 37 -16 8 -9 10 -103 9
-296 -3 -306 1 -281 -54 -307 -40 -20 -6 -27 121 -28 100 0 135 3 135 12 0 7
-12 15 -27 19 -73 15 -73 16 -73 146 l0 118 64 0 c148 0 246 79 246 198 0 61
-17 99 -60 136 -44 37 -85 44 -268 48 -140 3 -162 1 -160 -12z m338 -65 c52
-50 63 -150 24 -210 -20 -30 -82 -55 -139 -55 l-45 0 0 151 0 151 65 -4 c55
-3 69 -8 95 -33z"/>
<path d="M6221 6858 c-5 -13 -27 -66 -49 -118 -22 -52 -74 -177 -115 -276 -94
-227 -91 -222 -130 -232 -17 -5 -32 -14 -32 -21 0 -10 25 -14 98 -15 54 -1
100 2 103 6 3 5 -10 15 -30 23 -19 8 -37 19 -40 24 -5 7 58 178 69 190 7 7
230 0 237 -7 4 -4 21 -45 38 -91 32 -90 30 -104 -16 -115 -14 -4 -24 -12 -21
-19 2 -8 40 -12 128 -12 101 0 124 3 124 14 0 8 -15 19 -32 23 -39 10 -43 17
-123 219 -34 85 -69 172 -79 194 -10 22 -35 84 -56 138 -38 99 -57 118 -74 75z
m19 -172 c0 -6 16 -51 35 -100 19 -49 35 -91 35 -93 0 -2 -43 -3 -95 -3 -103
0 -105 1 -80 53 12 28 24 58 67 167 9 24 10 24 24 6 8 -11 14 -25 14 -30z"/>
<path d="M6744 6871 c-7 -7 18 -31 32 -31 35 0 42 -74 23 -266 -16 -173 -39
-221 -120 -262 -40 -20 -48 -55 -24 -101 19 -37 23 -37 65 -8 77 52 118 200
128 457 l7 165 93 3 92 3 0 -285 c0 -307 -2 -316 -53 -316 -28 0 -51 -15 -44
-27 4 -7 253 -10 276 -4 12 3 -25 30 -49 35 l-30 6 0 289 c0 303 0 304 45 313
11 2 21 10 23 18 2 13 -29 15 -229 15 -127 0 -233 -2 -235 -4z"/>
<path d="M7323 6868 c-7 -13 7 -28 27 -28 10 0 26 -7 34 -16 14 -13 16 -53 16
-285 0 -167 -4 -278 -10 -290 -6 -11 -21 -19 -36 -19 -21 0 -44 -24 -33 -34 2
-2 85 0 184 3 173 6 182 8 221 33 52 34 85 98 86 167 0 74 -27 120 -92 153
-45 24 -64 28 -135 28 -66 0 -84 3 -89 16 -3 9 -6 57 -6 108 0 107 9 126 66
135 23 4 39 12 39 20 0 11 -28 14 -133 15 -74 0 -136 -2 -139 -6z m317 -346
c63 -33 86 -118 56 -201 -17 -48 -56 -74 -121 -81 -85 -9 -85 -10 -85 149 0
76 3 141 7 144 14 14 109 7 143 -11z"/>
<path d="M7910 6863 c0 -7 16 -19 35 -27 l35 -15 -2 -287 c-3 -262 -5 -288
-20 -295 -10 -5 -26 -13 -35 -18 -39 -19 -12 -26 105 -26 128 -1 151 9 90 36
l-33 14 -3 138 -3 137 163 -2 163 -3 3 -123 c1 -68 -2 -130 -7 -141 -6 -10
-24 -21 -41 -24 -16 -4 -30 -12 -30 -19 0 -10 31 -13 125 -13 97 -1 125 2 125
12 0 8 -14 16 -31 20 -19 4 -34 14 -39 28 -5 13 -9 137 -9 277 -1 272 3 297
49 308 14 3 25 12 25 19 0 11 -26 14 -120 14 -124 0 -156 -11 -91 -33 43 -14
48 -34 44 -175 l-3 -100 -160 0 -160 0 -3 124 c-3 130 2 147 41 153 12 2 22 9
22 17 0 10 -25 14 -118 15 -87 1 -117 -2 -117 -11z"/>
<path d="M8693 6868 c-7 -13 7 -28 26 -28 10 0 25 -8 34 -18 15 -16 17 -51 17
-290 0 -233 -2 -273 -16 -286 -8 -9 -24 -16 -33 -16 -19 0 -50 -29 -35 -31 5
-1 86 -1 179 1 159 2 173 4 215 26 25 14 56 41 70 62 21 31 25 49 25 114 0 72
-2 79 -30 109 -43 46 -88 62 -190 68 l-90 6 0 115 c0 112 1 114 25 127 14 7
38 15 53 18 16 3 27 11 25 17 -5 13 -267 18 -275 6z m314 -345 c48 -22 78 -88
69 -150 -12 -93 -61 -133 -160 -133 l-56 0 0 150 0 150 56 0 c32 0 71 -7 91
-17z"/>
<path d="M9212 6860 c2 -8 12 -16 23 -18 45 -9 45 -10 45 -312 l0 -288 -35
-12 c-19 -6 -35 -17 -35 -24 0 -8 34 -11 123 -11 139 1 149 7 67 45 -13 6 -15
49 -18 284 -1 167 2 284 7 295 6 10 24 21 42 25 17 3 29 11 27 18 -3 8 -42 12
-126 12 -103 1 -122 -1 -120 -14z"/>
<path d="M9563 6866 c-6 -9 15 -26 34 -26 6 0 19 -7 27 -16 14 -13 16 -53 16
-285 0 -155 -4 -278 -10 -288 -5 -10 -23 -21 -40 -24 -16 -4 -30 -13 -30 -20
0 -11 24 -13 113 -12 61 1 114 5 117 10 3 6 -7 16 -22 23 -22 10 -28 20 -28
45 0 26 28 69 146 222 80 105 149 192 155 193 6 3 8 -79 7 -220 l-3 -223 -32
-14 c-62 -27 -39 -37 87 -36 113 1 144 9 106 27 -55 27 -51 1 -51 313 0 315
-5 288 54 314 36 17 1 25 -101 24 -117 0 -150 -13 -89 -34 59 -21 58 -23 -193
-347 -44 -56 -81 -100 -83 -98 -10 9 -2 420 8 432 6 7 20 14 32 16 12 2 23 10
25 18 2 13 -16 15 -119 15 -66 0 -123 -4 -126 -9z"/>
<path d="M4690 6002 c-150 -50 -249 -165 -286 -330 -32 -145 9 -303 106 -406
97 -103 221 -135 449 -118 72 6 135 13 140 16 5 4 12 21 16 39 3 17 15 61 26
96 12 37 16 68 11 73 -16 16 -39 -2 -58 -44 -37 -82 -74 -111 -164 -128 -58
-11 -145 2 -200 30 -85 44 -167 162 -191 278 -15 72 -6 201 18 266 25 67 83
130 151 163 50 24 69 27 152 27 131 1 179 -29 224 -136 15 -38 33 -49 41 -25
2 6 -1 50 -8 97 l-12 84 -45 14 c-25 7 -106 16 -180 18 -112 4 -144 1 -190
-14z"/>
<path d="M8195 5903 c-27 -65 -58 -140 -71 -168 -12 -27 -61 -147 -110 -265
-48 -118 -93 -224 -101 -235 -7 -10 -32 -26 -55 -35 -24 -8 -43 -22 -43 -29 0
-11 27 -14 130 -15 106 -1 130 2 130 13 0 8 -19 21 -42 28 -23 8 -44 20 -46
28 -6 13 67 209 85 233 8 8 50 12 148 12 98 0 140 -4 147 -12 16 -22 73 -172
79 -210 6 -36 5 -37 -35 -49 -26 -8 -41 -18 -41 -28 0 -14 20 -16 163 -16 135
0 162 3 162 15 0 8 -20 22 -45 31 -56 20 -50 8 -221 436 -147 368 -154 383
-173 383 -7 0 -34 -50 -61 -117z m94 -226 c28 -77 51 -143 51 -148 0 -5 -54
-9 -120 -9 -66 0 -120 4 -120 8 0 7 61 162 106 271 8 20 18 31 23 25 4 -5 31
-71 60 -147z"/>
<path d="M2892 5994 c2 -10 21 -23 45 -31 71 -24 67 -93 -6 -93 -48 0 -158
-42 -207 -79 -94 -71 -136 -168 -119 -273 10 -57 26 -86 72 -129 58 -56 124
-82 235 -95 67 -8 83 -20 69 -57 -7 -18 -22 -30 -51 -38 -25 -8 -40 -18 -40
-28 0 -15 18 -17 158 -16 129 1 157 3 157 15 0 8 -20 21 -45 30 -41 14 -45 19
-48 52 -3 35 -2 36 40 43 122 19 203 59 265 129 46 53 63 101 63 182 0 70 -23
126 -70 171 -52 51 -124 78 -258 99 -41 6 -43 8 -40 36 3 31 8 36 63 60 58 26
32 33 -128 36 -144 2 -158 1 -155 -14z m86 -186 c9 -9 12 -74 12 -230 0 -182
-2 -220 -14 -224 -26 -10 -125 26 -163 59 -52 46 -73 98 -73 185 0 44 6 84 14
100 32 60 102 102 207 121 3 1 10 -4 17 -11z m237 -22 c62 -29 100 -68 120
-125 30 -87 14 -185 -42 -243 -29 -30 -118 -68 -158 -68 l-25 0 0 230 0 230
28 0 c15 0 50 -11 77 -24z"/>
<path d="M3602 5994 c2 -10 21 -22 47 -30 24 -7 48 -19 52 -26 5 -7 9 -169 9
-359 0 -382 4 -358 -66 -383 -21 -7 -39 -19 -39 -26 0 -16 612 -21 624 -5 8
10 51 167 51 185 0 25 -31 5 -66 -42 -68 -89 -76 -93 -223 -93 -95 0 -132 4
-145 14 -14 12 -16 34 -14 175 l3 161 100 3 c115 3 133 -4 150 -64 6 -23 18
-40 28 -42 15 -3 17 9 17 128 0 120 -2 131 -17 128 -11 -2 -23 -20 -31 -43 -7
-22 -18 -43 -25 -47 -7 -4 -60 -8 -120 -8 l-107 0 2 168 3 167 120 0 c144 0
176 -12 220 -82 16 -27 34 -51 39 -55 17 -12 26 2 19 30 -3 15 -11 56 -17 92
l-11 65 -303 3 c-278 2 -303 1 -300 -14z"/>
<path d="M5255 5988 c-39 -169 -40 -183 -10 -171 8 3 22 20 31 39 23 47 57 79
102 92 46 14 178 16 186 3 12 -18 7 -712 -4 -726 -6 -7 -34 -19 -61 -25 -37
-9 -49 -16 -47 -28 3 -14 26 -16 183 -16 149 0 180 2 180 14 0 8 -19 19 -45
27 -83 24 -80 9 -80 403 0 396 -10 360 99 360 111 0 163 -27 202 -102 13 -25
26 -38 40 -38 15 0 19 5 16 18 -3 9 -11 42 -17 72 -7 30 -16 65 -21 78 l-9 22
-370 0 -370 0 -5 -22z"/>
<path d="M6120 5997 c0 -14 40 -37 65 -37 32 0 35 -38 33 -387 l-3 -348 -45
-22 c-81 -38 -62 -47 103 -48 130 0 147 2 147 16 0 10 -11 20 -27 24 -41 10
-53 24 -53 60 0 27 33 76 192 283 106 138 196 248 200 246 10 -6 11 -525 2
-549 -4 -9 -27 -26 -51 -36 -79 -34 -52 -44 118 -44 129 0 154 3 154 15 0 9
-18 21 -43 30 -27 9 -45 22 -48 35 -2 11 -3 175 -2 364 3 293 5 345 18 352 8
4 28 14 44 21 57 26 33 33 -116 36 -127 2 -148 0 -148 -13 0 -8 15 -21 34 -29
49 -20 55 -49 20 -97 -122 -164 -351 -459 -361 -463 -10 -4 -13 52 -13 263 0
203 3 271 13 278 6 6 29 16 50 23 75 24 38 35 -126 38 -127 2 -157 0 -157 -11z"/>
<path d="M7080 5996 c0 -8 17 -20 38 -26 76 -25 72 -3 72 -387 0 -330 -1 -344
-20 -363 -11 -11 -28 -20 -38 -20 -27 0 -59 -27 -47 -38 15 -16 472 1 510 19
108 49 158 117 159 219 1 97 -56 162 -173 196 -59 18 -59 19 8 56 81 45 111
174 57 254 -55 83 -132 104 -386 104 -149 0 -180 -2 -180 -14z m387 -66 c53
-23 73 -61 73 -137 0 -104 -63 -162 -177 -163 l-53 0 0 158 c0 87 3 162 8 166
11 12 102 -3 149 -24z m35 -376 c86 -27 127 -99 115 -201 -10 -88 -68 -134
-183 -141 -57 -4 -79 -1 -99 12 l-25 16 0 164 c0 122 3 166 13 169 19 9 128
-3 179 -19z"/>
<path d="M8880 5996 c0 -8 15 -19 34 -26 55 -18 59 -41 46 -246 -11 -182 -27
-281 -55 -335 -16 -31 -89 -89 -111 -89 -26 0 -44 -42 -34 -83 17 -79 56 -92
113 -38 90 83 135 257 143 556 3 99 7 190 10 203 4 21 9 22 107 22 67 0 107
-4 115 -12 15 -15 17 -689 2 -718 -6 -11 -26 -22 -48 -26 -48 -9 -74 -22 -69
-37 3 -9 52 -12 175 -12 152 0 172 2 172 16 0 11 -15 20 -45 28 -33 8 -46 17
-50 34 -3 12 -4 177 -3 366 3 293 5 345 18 352 8 4 28 14 44 21 16 7 29 18 30
23 1 6 -106 11 -296 13 -254 2 -298 0 -298 -12z"/>
<path d="M9612 5993 c2 -9 21 -22 44 -30 28 -9 44 -21 48 -36 9 -33 6 -669 -3
-692 -5 -11 -27 -27 -52 -35 -25 -9 -44 -22 -44 -30 0 -22 377 -16 455 8 132
40 208 203 151 328 -42 92 -106 125 -261 133 l-115 6 -3 141 c-3 160 -2 162
77 179 30 7 47 16 49 28 3 16 -10 17 -173 17 -159 0 -176 -2 -173 -17z m394
-424 c62 -30 84 -72 84 -165 0 -87 -14 -121 -66 -160 -30 -23 -48 -28 -115
-32 l-79 -5 0 192 0 191 67 0 c47 0 79 -6 109 -21z"/>
<path d="M2594 4898 c-4 -6 -9 -206 -12 -444 l-5 -434 -156 -2 -156 -3 -5
-110 -5 -110 -140 -5 -140 -5 0 -110 0 -110 4410 0 4410 0 0 110 0 110 -132 3
-132 3 -3 112 -3 112 -101 3 -101 3 -6 434 c-3 239 -8 439 -12 445 -8 12 -481
14 -489 2 -3 -5 -8 -205 -12 -445 l-7 -437 -252 0 -252 0 -8 438 c-4 240 -9
440 -12 445 -7 12 -481 9 -489 -4 -3 -6 -9 -206 -12 -445 l-5 -434 -252 0
-252 0 -8 438 c-4 240 -10 440 -14 445 -4 4 -115 6 -247 5 l-239 -3 -7 -80
c-4 -44 -9 -242 -10 -440 l-3 -360 -251 -3 -251 -2 -9 442 -9 443 -246 3 -246
2 -6 -121 c-4 -67 -7 -206 -7 -309 0 -103 -3 -248 -7 -323 l-6 -137 -249 0
-248 0 -1 88 c-1 48 -4 247 -8 442 l-6 355 -239 3 c-152 1 -243 -1 -250 -8 -8
-8 -22 -445 -25 -793 l-1 -87 -252 2 -253 3 -3 430 c-1 237 -4 436 -7 443 -6
17 -475 18 -493 0 -9 -9 -12 -85 -12 -278 0 -147 -3 -342 -7 -434 l-6 -166
-251 2 -251 3 -5 440 c-3 242 -7 441 -8 443 -1 1 -113 1 -249 0 l-248 -3 -6
-330 c-3 -181 -7 -381 -8 -442 l-1 -113 -250 0 -250 0 -1 168 c-1 92 -4 291
-8 442 l-6 275 -247 3 c-182 2 -249 -1 -254 -10z"/>
</g>
</svg>
